<?xml version="1.0" ?><svg enable-background="new 0 0 48 48" id="Layer_1" version="1.1" viewBox="0 0 48 48" xml:space="preserve" xmlns="http://www.w3.org/2000/svg" xmlns:xlink="http://www.w3.org/1999/xlink"><path d="M45,23.9c-4.3-9.1,1-17.4,1-17.4l-3-4.1C31.9,8.6,24,0.5,24,0.5S16.1,8.6,5,2.4L2,6.5c0,0,5.3,8.3,1,17.4  C2.3,25.4,1.9,27,2,28.6c0.2,6.2,2.8,20.2,22,18.8c19.2,1.4,21.8-12.5,22-18.8C46.1,27,45.7,25.4,45,23.9z M36.8,23.8  c-0.9,0-1.7-0.5-2.1-1.3l-5.5,4.2l2.1,6.9c0.2-0.1,0.5-0.1,0.7-0.1c1.4,0,2.5,1.1,2.5,2.5s-1.1,2.5-2.5,2.5c-1.4,0-2.5-1.1-2.5-2.5  c0-0.5,0.2-1,0.4-1.4L24,30.5l-5.9,4.1c0.3,0.4,0.4,0.9,0.4,1.4c0,1.4-1.1,2.5-2.5,2.5s-2.5-1.1-2.5-2.5s1.1-2.5,2.5-2.5  c0.2,0,0.5,0,0.7,0.1l2.1-6.9l-5.5-4.2c-0.4,0.7-1.2,1.3-2.1,1.3c-1.4,0-2.5-1.1-2.5-2.5s1.1-2.5,2.5-2.5c1.2,0,2.2,0.8,2.4,2  l7.2-0.2l2.3-6.5c-0.9-0.4-1.5-1.2-1.5-2.3c0-1.4,1.1-2.5,2.5-2.5s2.5,1.1,2.5,2.5c0,1-0.6,1.9-1.5,2.3l2.3,6.5l7.2,0.2  c0.2-1.1,1.2-2,2.4-2c1.4,0,2.5,1.1,2.5,2.5S38.2,23.8,36.8,23.8z" fill="#010101"/></svg>