<?xml version="1.0" ?><!DOCTYPE svg  PUBLIC '-//W3C//DTD SVG 1.1//EN'  'http://www.w3.org/Graphics/SVG/1.1/DTD/svg11.dtd'><svg enable-background="new 0 0 72 72" id="Layer_1" version="1.1" viewBox="0 0 72 72" xml:space="preserve" xmlns="http://www.w3.org/2000/svg" xmlns:xlink="http://www.w3.org/1999/xlink"><g><path d="M71,25.9v-3.4c0-0.1-0.1-0.2-0.2-0.2H57.8c-0.1,0-0.2-0.1-0.2-0.2v-5.6c0-0.1-0.1-0.2-0.2-0.2H37.3   c-0.1,0-0.2-0.1-0.2-0.2V9.5c0-0.1,0.1-0.2,0.2-0.2h10.3c0.1,0,0.2-0.1,0.2-0.2V1.2c0-0.1-0.1-0.2-0.2-0.2H37.1h-1h-0.7   c-0.1,0-0.2,0.1-0.2,0.2v14.9c0,0.1-0.1,0.2-0.2,0.2H14.6c-0.1,0-0.2,0.1-0.2,0.2v5.6c0,0.1-0.1,0.2-0.2,0.2H1.2   c-0.1,0-0.2,0.1-0.2,0.2v3.4c0,0.1,0.1,0.2,0.2,0.2h4.2c0.1,0,0.2,0.1,0.2,0.2V67c0,0.1-0.1,0.2-0.2,0.2H1.2   c-0.1,0-0.2,0.1-0.2,0.2v3.4C1,70.9,1.1,71,1.2,71h69.6c0.1,0,0.2-0.1,0.2-0.2v-3.4c0-0.1-0.1-0.2-0.2-0.2h-4.2   c-0.1,0-0.2-0.1-0.2-0.2V26.4c0-0.1,0.1-0.2,0.2-0.2h4.2C70.9,26.1,71,26,71,25.9z M13.1,27.1h45.8c0.1,0,0.2,0.1,0.2,0.2v12.2   c0,0.1-0.1,0.2-0.2,0.2H13.1c-0.1,0-0.2-0.1-0.2-0.2V27.3C12.9,27.2,13,27.1,13.1,27.1z M19.2,62h-8.1c-0.1,0-0.2-0.1-0.2-0.2V51.5   c0-0.1,0.1-0.2,0.2-0.2h8.1c0.1,0,0.2,0.1,0.2,0.2v10.4C19.4,62,19.3,62,19.2,62z M42.6,67.6H29.4c-0.1,0-0.2-0.1-0.2-0.2V50.8   c0-3.9,3.1-7,6.9-7c3.8,0,6.9,3.1,6.9,7v16.6C42.9,67.5,42.8,67.6,42.6,67.6z M60.9,62h-8.1c-0.1,0-0.2-0.1-0.2-0.2V51.5   c0-0.1,0.1-0.2,0.2-0.2h8.1c0.1,0,0.2,0.1,0.2,0.2v10.4C61.2,62,61.1,62,60.9,62z" fill="#010101"/><g><path d="M15.4,35.9c0-0.1,0.1-0.1,0.1-0.1c0.4,0.2,1,0.4,1.7,0.4c0.7,0,1.1-0.3,1.1-0.8c0-0.4-0.3-0.7-1.2-1    c-1.2-0.4-1.9-1.1-1.9-2.1c0-1.2,1-2.1,2.7-2.1c0.7,0,1.3,0.1,1.7,0.3c0,0,0.1,0.1,0.1,0.1l-0.3,1.1c0,0.1-0.1,0.1-0.1,0.1    c-0.3-0.1-0.8-0.3-1.4-0.3c-0.7,0-1,0.3-1,0.7c0,0.5,0.4,0.6,1.3,1c1.2,0.5,1.8,1.1,1.8,2.1c0,1.2-0.9,2.2-2.8,2.2    c-0.8,0-1.5-0.2-1.9-0.4c0,0-0.1-0.1-0.1-0.1L15.4,35.9z" fill="#010101"/><path d="M26.7,37.2c0,0,0,0.1-0.1,0.1c-0.3,0.1-0.9,0.3-1.7,0.3c-2.4,0-3.7-1.5-3.7-3.5c0-2.4,1.7-3.8,3.9-3.8    c0.8,0,1.4,0.1,1.7,0.3c0,0,0.1,0.1,0.1,0.1l-0.3,1.1c0,0.1-0.1,0.1-0.1,0.1c-0.3-0.1-0.7-0.2-1.2-0.2c-1.3,0-2.3,0.8-2.3,2.3    c0,1.4,0.8,2.3,2.3,2.3c0.4,0,0.9-0.1,1.2-0.2c0.1,0,0.1,0,0.1,0.1L26.7,37.2z" fill="#010101"/><path d="M29.9,30.5V33c0,0.1,0,0.1,0.1,0.1h2.4c0.1,0,0.1,0,0.1-0.1v-2.5c0-0.1,0-0.1,0.1-0.1H34    c0.1,0,0.1,0,0.1,0.1v6.9c0,0.1,0,0.1-0.1,0.1h-1.4c-0.1,0-0.1,0-0.1-0.1v-2.7c0-0.1,0-0.1-0.1-0.1H30c-0.1,0-0.1,0-0.1,0.1v2.7    c0,0.1,0,0.1-0.1,0.1h-1.4c-0.1,0-0.1,0-0.1-0.1v-6.9c0-0.1,0-0.1,0.1-0.1h1.4C29.9,30.4,29.9,30.4,29.9,30.5z" fill="#010101"/><path d="M42.5,33.8c0,2.3-1.4,3.7-3.5,3.7c-2.1,0-3.3-1.6-3.3-3.6c0-2.1,1.4-3.7,3.4-3.7    C41.3,30.3,42.5,31.9,42.5,33.8z M37.4,33.9c0,1.4,0.6,2.4,1.7,2.4c1.1,0,1.7-1,1.7-2.4c0-1.3-0.6-2.4-1.7-2.4    C38,31.5,37.4,32.6,37.4,33.9z" fill="#010101"/><path d="M50.6,33.8c0,2.3-1.4,3.7-3.5,3.7c-2.1,0-3.3-1.6-3.3-3.6c0-2.1,1.4-3.7,3.4-3.7    C49.4,30.3,50.6,31.9,50.6,33.8z M45.5,33.9c0,1.4,0.6,2.4,1.7,2.4c1.1,0,1.7-1,1.7-2.4c0-1.3-0.6-2.4-1.7-2.4    C46.1,31.5,45.5,32.6,45.5,33.9z" fill="#010101"/><path d="M52.2,30.4h1.4c0.1,0,0.1,0,0.1,0.1V36c0,0.1,0,0.1,0.1,0.1h2.6c0.1,0,0.1,0,0.1,0.1v1.1    c0,0.1,0,0.1-0.1,0.1h-4.2c-0.1,0-0.1,0-0.1-0.1v-6.9C52.1,30.4,52.2,30.4,52.2,30.4z" fill="#010101"/></g></g></svg>