<?xml version="1.0" ?><!DOCTYPE svg  PUBLIC '-//W3C//DTD SVG 1.1 Tiny//EN'  'http://www.w3.org/Graphics/SVG/1.1/DTD/svg11-tiny.dtd'><svg baseProfile="tiny" height="24px" id="Layer_1" version="1.1" viewBox="-495.5 504.5 24 24" width="24px" xml:space="preserve" xmlns="http://www.w3.org/2000/svg" xmlns:xlink="http://www.w3.org/1999/xlink"><g id="Layer_2"/><path d="M-490.5,508.5v20h5v-3h5v3h5v-20H-490.5z M-486.5,521.5h-2v-2h2V521.5z M-486.5,518.5h-2v-2h2V518.5z M-486.5,515.5h-2v-2h2  V515.5z M-486.5,512.5h-2v-2h2V512.5z M-483.5,521.5h-2v-2h2V521.5z M-483.5,518.5h-2v-2h2V518.5z M-483.5,515.5h-2v-2h2V515.5z   M-483.5,512.5h-2v-2h2V512.5z M-480.5,521.5h-2v-2h2V521.5z M-480.5,518.5h-2v-2h2V518.5z M-480.5,515.5h-2v-2h2V515.5z   M-480.5,512.5h-2v-2h2V512.5z M-477.5,521.5h-2v-2h2V521.5z M-477.5,518.5h-2v-2h2V518.5z M-477.5,515.5h-2v-2h2V515.5z   M-477.5,512.5h-2v-2h2V512.5z"/></svg>