<?xml version="1.0" ?><!DOCTYPE svg  PUBLIC '-//W3C//DTD SVG 1.1//EN'  'http://www.w3.org/Graphics/SVG/1.1/DTD/svg11.dtd'><svg height="40px" id="co_x5F_building" style="enable-background:new 0 0 40 40;" version="1.1" viewBox="0 0 40 40" width="40px" xml:space="preserve" xmlns="http://www.w3.org/2000/svg" xmlns:xlink="http://www.w3.org/1999/xlink"><path d="M4.191,14.012H9.99v-0.801c0-1.211,0.988-2.199,2.2-2.199h6.799  c0-2.962,0-5.924,0-8.887c0-0.219,0.097-0.406,0.274-0.535c0.177-0.128,0.387-0.159,0.595-0.091l1.088,0.363  c0.706,0.235,1.38,0.235,2.086,0l0.913-0.305c0.706-0.235,1.381-0.235,2.087,0l1.505,0.502c0.274,0.092,0.451,0.337,0.451,0.626v4.6  c0,0.22-0.097,0.409-0.276,0.537c-0.179,0.128-0.39,0.158-0.598,0.087l-0.992-0.34c-0.711-0.243-1.392-0.247-2.104-0.012  l-0.945,0.312c-0.697,0.23-1.362,0.231-2.062,0.002l-0.021-0.007v3.147h6.799c1.212,0,2.2,0.988,2.2,2.199v0.801h5.799  c1.212,0,2.201,0.987,2.201,2.199V35.81c0,1.211-0.989,2.199-2.201,2.199H4.191c-1.212,0-2.2-0.988-2.2-2.199V16.211  C1.991,14.999,2.979,14.012,4.191,14.012L4.191,14.012z M31.648,23.011h0.68c0.363,0,0.66,0.297,0.66,0.66V34.35  c0,0.363,0.297,0.659,0.659,0.659h0.681c0.363,0,0.66-0.296,0.66-0.659V21.671c0-0.364-0.297-0.66-0.66-0.66H5.651  c-0.364,0-0.66,0.296-0.66,0.66V34.35c0,0.363,0.296,0.659,0.66,0.659h0.68c0.363,0,0.66-0.296,0.66-0.659V23.671  c0-0.363,0.296-0.66,0.659-0.66h0.68c0.364,0,0.66,0.297,0.66,0.66V34.35c0,0.363,0.297,0.659,0.66,0.659h0.68  c0.363,0,0.66-0.296,0.66-0.659V23.671c0-0.363,0.297-0.66,0.66-0.66h0.68c0.363,0,0.66,0.297,0.66,0.66V34.35  c0,0.363,0.296,0.659,0.66,0.659h0.68c0.363,0,0.66-0.296,0.66-0.659V23.671c0-0.363,0.296-0.66,0.659-0.66h0.68  c0.364,0,0.66,0.297,0.66,0.66V34.35c0,0.363,0.297,0.659,0.66,0.659h0.681c0.363,0,0.659-0.296,0.659-0.659V23.671  c0-0.363,0.297-0.66,0.661-0.66h0.679c0.363,0,0.66,0.297,0.66,0.66V34.35c0,0.363,0.297,0.659,0.66,0.659h0.68  c0.363,0,0.66-0.296,0.66-0.659V23.671c0-0.363,0.296-0.66,0.66-0.66h0.68c0.363,0,0.659,0.297,0.659,0.66V34.35  c0,0.363,0.298,0.659,0.66,0.659h0.68c0.364,0,0.661-0.296,0.661-0.659V23.671c0-0.363,0.296-0.66,0.659-0.66h0.681  c0.362,0,0.659,0.297,0.659,0.66V34.35c0,0.363,0.297,0.659,0.66,0.659h0.68c0.364,0,0.66-0.296,0.66-0.659V23.671  C30.988,23.308,31.285,23.011,31.648,23.011L31.648,23.011z M30.987,18.328c0,0.363,0.297,0.66,0.66,0.66h2.681  c0.363,0,0.66-0.297,0.66-0.66v-0.685c0-0.363-0.297-0.66-0.66-0.66h-2.681c-0.363,0-0.66,0.297-0.66,0.66V18.328L30.987,18.328z   M24.488,18.328c0,0.363,0.297,0.66,0.66,0.66h2.68c0.364,0,0.66-0.297,0.66-0.66v-0.685c0-0.363-0.296-0.66-0.66-0.66h-2.68  c-0.363,0-0.66,0.297-0.66,0.66V18.328L24.488,18.328z M17.989,18.328c0,0.363,0.296,0.66,0.66,0.66h2.68  c0.363,0,0.66-0.297,0.66-0.66v-0.685c0-0.363-0.297-0.66-0.66-0.66h-2.68c-0.364,0-0.66,0.297-0.66,0.66V18.328L17.989,18.328z   M11.49,18.324c0,0.364,0.297,0.66,0.66,0.66h2.68c0.363,0,0.66-0.296,0.66-0.66V17.64c0-0.363-0.297-0.66-0.66-0.66h-2.68  c-0.363,0-0.66,0.297-0.66,0.66V18.324L11.49,18.324z M4.991,18.328c0,0.363,0.296,0.66,0.66,0.66H8.33  c0.364,0,0.66-0.297,0.66-0.66v-0.685c0-0.363-0.296-0.66-0.66-0.66H5.651c-0.363,0-0.66,0.297-0.66,0.66V18.328z" style="fill-rule:evenodd;clip-rule:evenodd;"/></svg>