<?xml version="1.0" encoding="utf-8"?>
<!-- Generator: Adobe Illustrator 18.1.1, SVG Export Plug-In . SVG Version: 6.00 Build 0)  -->
<svg version="1.1" id="Layer_1" xmlns="http://www.w3.org/2000/svg" xmlns:xlink="http://www.w3.org/1999/xlink" x="0px" y="0px"
	 viewBox="0 0 960 960" enable-background="new 0 0 960 960" xml:space="preserve">
<path d="M105,19c27.9-0.6,53.3,16.4,46,49c-5.2,23.3-30.2,39.9-42,59c-16.6,27-23.7,58.2-30,96c-9.1,54.1,19.2,115.1,39,143
	c10,12,20,24,30,36c11.8,27.4-6.6,53.4-28,58c-39.2,8.4-76-62.7-88-87C-26.1,254.5,4.5,71.6,105,19z"/>
<path d="M845,19c37.7,2.3,55.4,40.8,71,66c59.5,95.8,54.1,229.4-6,320c-13.4,20.1-29.5,50.7-57,56c-26.5,5.1-50.1-21.2-44-49
	c4.8-21.9,27-35.6,38-53c18.3-29,27.1-60.7,34-102c9.5-56.4-20.4-117-41-146c-8.6-12.1-23.2-21.5-29-36
	C797.6,41.4,824.9,27.7,845,19z"/>
<path d="M254,101c28.5-0.5,53.7,18.8,44,51c-9,29.9-46.2,45.6-39,93c3.5,22.7,9.2,40.8,20,56c7,9.8,17,15.7,20,30
	c5.3,25.6-13.6,43.4-31,47c-36,7.4-52.7-33.7-64-53C158.6,247.5,188.7,134.8,254,101z"/>
<path d="M691,102c56.2-0.8,97.5,95.4,86,161c-6.1,35.1-17.8,61.5-35,85c-9.7,13.3-18.6,27.5-38,31c-25.6,4.6-48.5-20.3-43-47
	c3.2-15.6,14.4-22.1,22-33c10.1-14.4,14.7-32.6,18-54C711,179.4,613.6,147.8,691,102z"/>
<path d="M470,142c137.4-2.6,142.8,175.4,20,196c-63.7,10.7-123.2-60.2-104-124C400.8,164.7,425.3,160.4,470,142z"/>
<path d="M553,397c-26.2,6.1-53,23.8-91,17c-20.3-3.6-36.6-13-54-17c-62.7,167.3-125.3,334.7-188,502c0,0.3,0,0.7,0,1
	c29.7,0,59.3,0,89,0c17.3-20,34.7-40,52-60c79.7,0,159.3,0,239,0c17,20,34,40,51,60c30,0,60,0,90,0C678.3,732.4,615.7,564.6,553,397
	z M480,446c20,71,40,142,60,213c-39.3,0-78.7,0-118,0C441.3,588,460.7,517,480,446z M363,779c19.3-19.7,38.7-39.3,58-59
	c39.7,0,79.3,0,119,0c0.3,0,0.7,0,1,0c19.3,19.7,38.7,39.3,58,59C520.3,779,441.7,779,363,779z"/>
</svg>
